# xmcd
#
# Track frame offsets:
#	150
#	12418
#	26575
#	41831
#	58619
#	77791
#	87892
#	102442
#	128232
#	142359
#	156324
#	176621
#
# Disc length: 2592 seconds
#
# Revision: 0
# Processed by: cddbd v1.5.1PL2 Copyright (c) Steve Scherf et al.
# Submitted via: dBpowerAMP V4.0
#
DISCID=a60a1e0c
DTITLE=Elam Mc Knight and Keith Carter - The Last Country Store
DYEAR=2005
DGENRE=Blues
TTITLE0=Ain't Gonna Plow No More
TTITLE1=The Last Country Store
TTITLE2=Going Away (Featuring Jimbo Mathus )
TTITLE3=Cadillac Women
TTITLE4=Leaving Five Points
TTITLE5=Mamma Killed a Chicken
TTITLE6=Whose Gonna Be Your
TTITLE7=Another Man Done Gone
TTITLE8=Little Boy
TTITLE9=Pig Meat (Fuller )
TTITLE10=Me and the Devil (R.Johnson )
TTITLE11=Going Away Acoustic
EXTD=Big Black End
EXTT0=
EXTT1=
EXTT2=
EXTT3=
EXTT4=
EXTT5=
EXTT6=
EXTT7=
EXTT8=
EXTT9=
EXTT10=
EXTT11=
PLAYORDER=
